<svg xmlns="http://www.w3.org/2000/svg" width="23" height="23" viewBox="0 0 23 23" fill="none">
  <path d="M18.227 22.9122C13.314 22.9122 8.941 19.2852 6.741 17.0842C4.486 14.8302 0.731004 10.2912 0.921004 5.2312C0.953564 4.43182 1.27638 3.67171 1.829 3.0932C2.40763 2.47797 3.031 1.90641 3.694 1.3832C4.13269 1.04793 4.67707 0.881115 5.22828 0.913042C5.77948 0.94497 6.30096 1.17353 6.698 1.5572C8.33698 3.00411 9.59348 4.83321 10.356 6.8822C10.5523 7.52883 10.4839 8.2269 10.166 8.8232L9.711 9.6762C9.67927 9.73514 9.66068 9.80026 9.65654 9.86707C9.6524 9.93388 9.66279 10.0008 9.687 10.0632C10.4554 11.906 11.9208 13.3707 13.764 14.1382C13.8262 14.1628 13.893 14.1734 13.9597 14.1693C14.0264 14.1651 14.0914 14.1463 14.15 14.1142L15.003 13.6592C15.5989 13.3412 16.2967 13.2729 16.943 13.4692C18.9925 14.2314 20.8219 15.4879 22.269 17.1272C22.652 17.5244 22.8802 18.0456 22.9121 18.5965C22.944 19.1474 22.7776 19.6914 22.443 20.1302C21.9193 20.7931 21.3478 21.4167 20.733 21.9962C20.1547 22.5495 19.3946 22.873 18.595 22.9062C18.4724 22.9104 18.3497 22.9124 18.227 22.9122ZM5.083 2.9122C5.02288 2.9111 4.9641 2.93011 4.916 2.9662C4.33452 3.42673 3.78771 3.92942 3.28 4.4702C3.06233 4.69582 2.93435 4.99303 2.92 5.3062C2.759 9.6072 6.13 13.6462 8.155 15.6702C10.18 17.6942 14.215 21.0732 18.521 20.9062C18.8339 20.8921 19.1309 20.764 19.356 20.5462C19.8966 20.0379 20.3993 19.4908 20.86 18.9092C20.901 18.8461 20.9188 18.7706 20.9102 18.6958C20.9016 18.6209 20.8673 18.5514 20.813 18.4992C19.5951 17.1215 18.0675 16.0526 16.356 15.3802C16.2185 15.3403 16.0709 15.3561 15.945 15.4242L15.091 15.8792C14.7753 16.0487 14.4262 16.1469 14.0684 16.167C13.7106 16.187 13.3527 16.1284 13.02 15.9952C11.8563 15.5143 10.799 14.8085 9.90859 13.9182C9.01816 13.028 8.31215 11.9708 7.831 10.8072C7.69801 10.4745 7.63939 10.1167 7.65925 9.75897C7.67912 9.40122 7.77699 9.05214 7.946 8.7362L8.402 7.8812C8.46957 7.75547 8.48501 7.60822 8.445 7.4712C7.77276 5.75958 6.70419 4.23177 5.327 3.0132C5.26125 2.95021 5.17406 2.91447 5.083 2.9132V2.9122Z" fill="black"/>
</svg>