<svg xmlns="http://www.w3.org/2000/svg" width="28" height="28" viewBox="0 0 28 28" fill="none">
  <path fill-rule="evenodd" clip-rule="evenodd" d="M4.73784 9.66803C4.625 10.0906 4.625 10.6056 4.625 11.6354V17.3833C4.625 19.2816 4.625 20.2308 5.00029 20.9532C5.31654 21.5621 5.81294 22.0585 6.42175 22.3747C7.14421 22.75 8.09336 22.75 9.99167 22.75H18.0083C19.9066 22.75 20.8558 22.75 21.5782 22.3747C22.1871 22.0585 22.6835 21.5621 22.9997 20.9532C23.375 20.2308 23.375 19.2816 23.375 17.3833V11.6354C23.375 10.6056 23.375 10.0906 23.2622 9.66803C22.9544 8.51548 22.0542 7.61526 20.9016 7.30749C20.479 7.19466 19.9641 7.19466 18.9342 7.19466C18.824 7.19466 18.7195 7.08707 18.6242 6.92252C18.1136 6.04055 17.3629 5.25 16.3438 5.25H11.6562C10.6371 5.25 9.88645 6.04055 9.37578 6.92252C9.2805 7.08707 9.17604 7.19466 9.06579 7.19466C8.0359 7.19466 7.52095 7.19466 7.09838 7.30749C5.94582 7.61526 5.0456 8.51548 4.73784 9.66803ZM14 19.375C11.3766 19.375 9.25 17.2484 9.25 14.625C9.25 12.0016 11.3766 9.875 14 9.875C16.6234 9.875 18.75 12.0016 18.75 14.625C18.75 17.2484 16.6234 19.375 14 19.375ZM10.875 14.625C10.875 12.8991 12.2741 11.5 14 11.5C15.7259 11.5 17.125 12.8991 17.125 14.625C17.125 16.3509 15.7259 17.75 14 17.75C12.2741 17.75 10.875 16.3509 10.875 14.625Z" fill="white"/>
</svg>