<svg xmlns="http://www.w3.org/2000/svg" width="32" height="32" viewBox="0 0 32 32" fill="none">
  <path fill-rule="evenodd" clip-rule="evenodd" d="M10 16.5C10 19.5376 12.4624 22 15.5 22C18.5376 22 21 19.5376 21 16.5C21 13.4624 18.5376 11 15.5 11C12.4624 11 10 13.4624 10 16.5ZM12 16.5C12 14.567 13.567 13 15.5 13C17.433 13 19 14.567 19 16.5C19 18.433 17.433 20 15.5 20C13.567 20 12 18.433 12 16.5Z" fill="black"/>
  <path fill-rule="evenodd" clip-rule="evenodd" d="M13.4316 6C12.8241 6 12.3488 6.2493 11.996 6.53032C11.6797 6.7822 11.4145 7.10001 11.2223 7.33036L11.1984 7.35899C10.9745 7.62695 10.8309 7.79291 10.6896 7.90547C10.5716 7.99949 10.5228 8.00022 10.5 8.00022L10.4422 8.00021C10.0335 8.00016 9.75529 8.00013 9.50992 8.02429C7.13604 8.2581 5.25789 10.1362 5.02409 12.5101C4.99992 12.7555 4.99995 13.0337 5 13.4424L5.00001 18.6035C5 19.7056 4.99999 20.5944 5.05973 21.3138C5.12125 22.0547 5.25126 22.7049 5.56294 23.3049C6.03732 24.2181 6.78192 24.9627 7.69514 25.4371C8.29514 25.7487 8.94536 25.8788 9.68617 25.9403C10.4056 26 11.2944 26 12.3964 26H18.6035C19.7055 26 20.5945 26 21.3138 25.9403C22.0547 25.8788 22.7049 25.7487 23.3049 25.4371C24.2181 24.9627 24.9627 24.2181 25.4371 23.3049C25.7488 22.7049 25.8788 22.0547 25.9403 21.3138C26 20.5945 26 19.7056 26 18.6036L26 13.4424C26.0001 13.0337 26.0001 12.7555 25.9759 12.5101C25.7421 10.1362 23.864 8.2581 21.4901 8.02429C21.2447 8.00013 20.9665 8.00016 20.5579 8.00021L20.5 8.00022L20.4982 8.00034L20.4969 7.99963C20.4897 7.99645 20.4626 7.98283 20.4141 7.93974C20.2986 7.83727 20.1798 7.68173 19.9822 7.41083L19.9596 7.37983C19.7933 7.15141 19.5556 6.82513 19.262 6.56459C18.9285 6.26862 18.462 6 17.8486 6H13.4316ZM10.5 10.0002C11.1075 10.0002 11.5828 9.75092 11.9356 9.4699C12.2519 9.21802 12.5171 8.90021 12.7093 8.66986L12.7332 8.64123C12.9571 8.37327 13.1007 8.2073 13.242 8.09475C13.36 8.00073 13.4088 8 13.4316 8H17.8486L17.8504 7.99987L17.8517 8.00059C17.8589 8.00377 17.8859 8.01738 17.9345 8.06048C18.05 8.16295 18.1688 8.31848 18.3664 8.58939L18.389 8.62039C18.5553 8.84881 18.793 9.17508 19.0866 9.43563C19.4201 9.73159 19.8866 10.0002 20.5 10.0002C20.9881 10.0002 21.1597 10.0014 21.2941 10.0147C22.7184 10.1549 23.8453 11.2818 23.9856 12.7062C23.9988 12.8405 24 13.0121 24 13.5002V18.56C24 19.7158 23.9992 20.5214 23.9471 21.1483C23.8961 21.7632 23.8009 22.116 23.6623 22.3829C23.3776 22.9309 22.9309 23.3776 22.3829 23.6622C22.116 23.8009 21.7632 23.8961 21.1483 23.9471C20.5215 23.9992 19.7158 24 18.56 24H12.44C11.2842 24 10.4786 23.9992 9.85169 23.9471C9.23679 23.8961 8.88403 23.8009 8.61709 23.6622C8.06916 23.3776 7.6224 22.9309 7.33777 22.3829C7.1991 22.116 7.10394 21.7632 7.05287 21.1483C7.00081 20.5214 7.00001 19.7158 7.00001 18.56V13.5002C7.00001 13.0121 7.00122 12.8405 7.01446 12.7062C7.15474 11.2818 8.28163 10.1549 9.70596 10.0147C9.8403 10.0014 10.0119 10.0002 10.5 10.0002Z" fill="black"/>
</svg>