<svg xmlns="http://www.w3.org/2000/svg" width="27" height="27" viewBox="0 0 27 27" fill="none">
  <path fill-rule="evenodd" clip-rule="evenodd" d="M13.75 0C21.0678 0 27 5.93223 27 13.25C27 20.5678 21.0678 26.5 13.75 26.5C6.43223 26.5 0.5 20.5678 0.5 13.25C0.5 5.93223 6.43223 0 13.75 0ZM13.75 1.54362C20.2151 1.54436 25.4555 6.78581 25.4551 13.2509C25.4546 19.716 20.2133 24.9566 13.7482 24.9564C7.28315 24.9561 2.0423 19.7151 2.0423 13.25C2.04239 10.1451 3.27594 7.16736 5.47158 4.97197C7.66722 2.77658 10.6451 1.54336 13.75 1.54362ZM9.55836 7.50281C9.14882 7.49793 8.75443 7.65749 8.46348 7.94576C8.17253 8.23402 8.00934 8.62693 8.01043 9.0365C8.01043 9.8914 8.70346 10.5844 9.55836 10.5844C10.4133 10.5844 11.1063 9.8914 11.1063 9.0365C11.1074 8.62693 10.9442 8.23402 10.6532 7.94576C10.3623 7.65749 9.96791 7.49793 9.55836 7.50281ZM22.5801 15.5323C21.8746 19.345 18.1947 22.5283 13.7483 22.5283C9.33742 22.5283 5.67909 19.3914 4.93213 15.6217C4.78074 14.681 5.55123 14.4591 6.277 14.6346C8.70492 15.3366 11.2228 15.6782 13.75 15.6483C16.2715 15.6775 18.7836 15.3371 21.2064 14.6379C21.912 14.4591 22.6676 14.6611 22.5801 15.5323ZM20.1849 16.0623C20.116 16.0888 20.0461 16.1087 19.9755 16.1319C19.9682 16.1352 20.2014 16.059 20.1945 16.0623C18.0994 16.6391 15.9338 16.9189 13.7609 16.8938C11.1679 16.8938 8.84883 16.6056 7.25286 16.0325C6.09581 15.688 6.31774 17.0494 7.13096 17.4668C9.21139 18.4139 11.4749 18.8912 13.7606 18.8647C16.4795 18.8647 18.9023 18.232 20.5025 17.4138C21.2598 16.9269 21.4095 15.6218 20.1849 16.0623ZM17.9502 7.50281C17.5407 7.49793 17.1462 7.65748 16.8553 7.94574C16.5643 8.234 16.401 8.6269 16.402 9.0365C16.3938 9.59498 16.6871 10.1146 17.1694 10.3962C17.6518 10.6778 18.2484 10.6778 18.7307 10.3962C19.2131 10.1146 19.5063 9.59498 19.4982 9.0365C19.4992 8.62696 19.336 8.23411 19.045 7.94586C18.7541 7.65761 18.3598 7.49802 17.9502 7.50281Z" fill="#50555C"/>
</svg>