<svg xmlns="http://www.w3.org/2000/svg" width="28" height="28" viewBox="0 0 28 28" fill="none" stroke="currentColor">
  <path d="M5 5.5C5 5.22386 5.22386 5 5.5 5H9C9.27614 5 9.5 5.22386 9.5 5.5V9C9.5 9.27614 9.27614 9.5 9 9.5H5.5C5.22386 9.5 5 9.27614 5 9V5.5Z" fill="black"/>
  <path d="M5 12C5 11.7239 5.22386 11.5 5.5 11.5H9C9.27614 11.5 9.5 11.7239 9.5 12V15.5C9.5 15.7761 9.27614 16 9 16H5.5C5.22386 16 5 15.7761 5 15.5V12Z" fill="black"/>
  <path d="M5.5 18C5.22386 18 5 18.2239 5 18.5V22C5 22.2761 5.22386 22.5 5.5 22.5H9C9.27614 22.5 9.5 22.2761 9.5 22V18.5C9.5 18.2239 9.27614 18 9 18H5.5Z" fill="black"/>
  <path d="M11.5 5.5C11.5 5.22386 11.7239 5 12 5H15.5C15.7761 5 16 5.22386 16 5.5V9C16 9.27614 15.7761 9.5 15.5 9.5H12C11.7239 9.5 11.5 9.27614 11.5 9V5.5Z" fill="black"/>
  <path d="M12 11.5C11.7239 11.5 11.5 11.7239 11.5 12V15.5C11.5 15.7761 11.7239 16 12 16H15.5C15.7761 16 16 15.7761 16 15.5V12C16 11.7239 15.7761 11.5 15.5 11.5H12Z" fill="black"/>
  <path d="M11.5 18.5C11.5 18.2239 11.7239 18 12 18H15.5C15.7761 18 16 18.2239 16 18.5V22C16 22.2761 15.7761 22.5 15.5 22.5H12C11.7239 22.5 11.5 22.2761 11.5 22V18.5Z" fill="black"/>
  <path d="M18.5 5C18.2239 5 18 5.22386 18 5.5V9C18 9.27614 18.2239 9.5 18.5 9.5H22C22.2761 9.5 22.5 9.27614 22.5 9V5.5C22.5 5.22386 22.2761 5 22 5H18.5Z" fill="black"/>
  <path d="M18 12C18 11.7239 18.2239 11.5 18.5 11.5H22C22.2761 11.5 22.5 11.7239 22.5 12V15.5C22.5 15.7761 22.2761 16 22 16H18.5C18.2239 16 18 15.7761 18 15.5V12Z" fill="black"/>
  <path d="M18.5 18C18.2239 18 18 18.2239 18 18.5V22C18 22.2761 18.2239 22.5 18.5 22.5H22C22.2761 22.5 22.5 22.2761 22.5 22V18.5C22.5 18.2239 22.2761 18 22 18H18.5Z" fill="black"/>
</svg>