<svg xmlns="http://www.w3.org/2000/svg" width="24" height="24" viewBox="0 0 24 24" fill="none">
  <path fill-rule="evenodd" clip-rule="evenodd" d="M12.8048 0.65584C12.3541 0.226048 11.6453 0.226048 11.1945 0.65584L0.694548 10.6684C0.46366 10.8886 0.333008 11.1937 0.333008 11.5127V22.5002C0.333008 23.1445 0.855342 23.6668 1.49967 23.6668H9.66634V17.8335C9.66634 16.5448 10.711 15.5002 11.9997 15.5002C13.2883 15.5002 14.333 16.5448 14.333 17.8335V23.6668H22.4997C23.144 23.6668 23.6663 23.1445 23.6663 22.5002V11.5127C23.6663 11.1937 23.5357 10.8886 23.3048 10.6684L12.8048 0.65584ZM16.6663 21.3335H21.333V12.0123L11.9997 3.11224L2.66634 12.0123V21.3335H7.33301V17.8335C7.33301 15.2562 9.42235 13.1668 11.9997 13.1668C14.577 13.1668 16.6663 15.2562 16.6663 17.8335V21.3335Z" fill="black"/>
</svg>

