<svg xmlns="http://www.w3.org/2000/svg" width="32" height="32" viewBox="0 0 32 32" fill="none">
  <path d="M26.946 28.3528H5.16667C4.85725 28.3528 4.5605 28.2299 4.34171 28.0111C4.12292 27.7923 4 27.4956 4 27.1862V25.6065C4.00216 23.6665 4.77379 21.8066 6.14558 20.4348C7.51738 19.063 9.37732 18.2913 11.3173 18.2892H20.7953C22.7349 18.2916 24.5944 19.0632 25.9659 20.4348C27.3374 21.8063 28.109 23.6657 28.1115 25.6053V27.1862C28.1115 27.4956 27.9886 27.7923 27.7698 28.0111C27.551 28.2299 27.2554 28.3528 26.946 28.3528ZM16.0563 17C14.6719 17 13.3185 16.5895 12.1673 15.8203C11.0162 15.0511 10.119 13.9579 9.58918 12.6788C9.05936 11.3997 8.92074 9.99224 9.19084 8.63437C9.46093 7.2765 10.1276 6.02922 11.1066 5.05026C12.0856 4.07129 13.3328 3.4046 14.6907 3.13451C16.0486 2.86441 17.456 3.00303 18.7351 3.53285C20.0142 4.06266 21.1074 4.95987 21.8766 6.11101C22.6458 7.26216 23.0563 8.61553 23.0563 10C23.0542 11.8559 22.316 13.6351 21.0037 14.9474C19.6914 16.2597 17.9122 16.9978 16.0563 17Z" fill="white"/>
</svg>