<svg xmlns="http://www.w3.org/2000/svg" width="12" height="20" viewBox="0 0 12 20" fill="none">
  <path d="M0.497545 9.99992C0.497601 9.73472 0.602996 9.48041 0.790546 9.29292L9.79455 0.292919C9.98315 0.110761 10.2358 0.00996636 10.4979 0.0122448C10.7601 0.0145232 11.011 0.119692 11.1964 0.3051C11.3818 0.490508 11.4869 0.741321 11.4892 1.00352C11.4915 1.26571 11.3907 1.51832 11.2085 1.70692L2.91255 9.99992L11.2085 18.2929C11.3907 18.4815 11.4915 18.7341 11.4892 18.9963C11.4869 19.2585 11.3818 19.5093 11.1964 19.6947C11.011 19.8801 10.7601 19.9853 10.4979 19.9876C10.2357 19.9899 9.98315 19.8891 9.79455 19.7069L0.790546 10.7069C0.602996 10.5194 0.497601 10.2651 0.497545 9.99992Z" fill="black"/>
</svg>