<svg xmlns="http://www.w3.org/2000/svg" width="24" height="22" viewBox="0 0 24 22" fill="none">
  <path d="M11.9429 21.503C11.6395 21.503 11.3362 21.433 11.0795 21.2347C7.9762 18.9714 4.74453 16.4747 2.35286 13.0447C1.51286 11.8314 0.381198 9.95304 0.334531 7.57304C0.276198 4.71471 1.89786 2.08971 4.3712 1.01638C6.8562 -0.0569568 9.80786 0.573043 11.8962 2.62638L11.9895 2.71971C12.0829 2.62638 12.1762 2.53304 12.2695 2.45138C14.6029 0.328043 17.8579 -0.0919568 20.3429 1.40138C22.9212 2.95304 24.1812 6.14971 23.4345 9.19471C22.7695 11.8664 21.1362 13.8964 19.6195 15.5414C17.5429 17.7814 15.1162 19.648 13.0162 21.1764C12.7595 21.363 12.3512 21.5147 11.9312 21.5147L11.9429 21.503ZM6.8912 2.83638C6.34286 2.83638 5.8062 2.94138 5.30453 3.16304C3.69453 3.86304 2.63286 5.61304 2.66786 7.52638C2.6912 8.86804 3.19286 10.163 4.2662 11.7147C6.3312 14.6897 9.2012 16.9647 12.0012 19.0297C14.0079 17.5597 16.0962 15.9264 17.9162 13.9547C19.2929 12.4614 20.6462 10.7814 21.1829 8.63471C21.6962 6.58138 20.8562 4.43471 19.1529 3.40804C17.5312 2.42804 15.4429 2.73138 13.8445 4.18971C13.6229 4.38804 13.4129 4.62138 13.2145 4.84304L12.0595 6.05638L10.2629 4.30638C9.29453 3.36138 8.06953 2.84804 6.87953 2.84804L6.8912 2.83638Z" fill="black"/>
</svg>