<svg xmlns="http://www.w3.org/2000/svg" width="15" height="15" viewBox="0 0 15 15" fill="none" stroke="currentColor">
  <path d="M11.5211 7.37288C12.8646 6.02938 12.8646 3.85113 11.5211 2.50763C10.1775 1.16412 7.9993 1.16412 6.6558 2.50763L6.06321 3.10022C5.77031 3.39311 5.29544 3.39311 5.00255 3.10022C4.70965 2.80733 4.70965 2.33245 5.00255 2.03956L5.59514 1.44697C7.52443 -0.482322 10.6524 -0.482322 12.5817 1.44697C14.511 3.37626 14.511 6.50425 12.5817 8.43354L11.9891 9.02613C11.6962 9.31903 11.2214 9.31903 10.9285 9.02613C10.6356 8.73324 10.6356 8.25837 10.9285 7.96547L11.5211 7.37288Z" fill="black"/>
  <path d="M2.50763 6.65607C1.16412 7.99957 1.16412 10.1778 2.50763 11.5213C3.85113 12.8648 6.02938 12.8648 7.37288 11.5213L7.96547 10.9287C8.25837 10.6358 8.73324 10.6358 9.02613 10.9287C9.31903 11.2216 9.31903 11.6965 9.02613 11.9894L8.43354 12.582C6.50425 14.5113 3.37626 14.5113 1.44697 12.582C-0.482322 10.6527 -0.482322 7.52469 1.44697 5.59541L2.03956 5.00281C2.33245 4.70992 2.80733 4.70992 3.10022 5.00281C3.39311 5.29571 3.39311 5.77058 3.10022 6.06347L2.50763 6.65607Z" fill="black"/>
  <path d="M4.07155 8.81227C3.77866 9.10516 3.77866 9.58004 4.07155 9.87293C4.36444 10.1658 4.83932 10.1658 5.13221 9.87293L9.87294 5.1322C10.1658 4.8393 10.1658 4.36443 9.87294 4.07154C9.58005 3.77864 9.10517 3.77864 8.81228 4.07154L4.07155 8.81227Z" fill="black"/>
</svg>