<svg xmlns="http://www.w3.org/2000/svg" width="16" height="16" viewBox="0 0 16 16" fill="none">
  <path fill-rule="evenodd" clip-rule="evenodd" d="M11 6.5H5C4.72386 6.5 4.5 6.72386 4.5 7L4.5 12.5001C4.5 12.7762 4.72386 13.0001 5 13.0001H11C11.2761 13.0001 11.5 12.7762 11.5 12.5001V7C11.5 6.72386 11.2761 6.5 11 6.5ZM5 5C3.89543 5 3 5.89543 3 7V12.5001C3 13.6046 3.89543 14.5001 5 14.5001H11C12.1046 14.5001 13 13.6046 13 12.5001V7C13 5.89543 12.1046 5 11 5H5Z" fill="black"/>
  <path fill-rule="evenodd" clip-rule="evenodd" d="M9.66772 4.40352C9.66772 3.51208 8.92106 2.78943 8 2.78943C7.07894 2.78943 6.33228 3.51208 6.33228 4.40352V5.85528C6.33228 6.21135 6.03404 6.5 5.66614 6.5C5.29824 6.5 5 6.21135 5 5.85528V4.40352C5 2.79995 6.34315 1.5 8 1.5C9.65685 1.5 11 2.79995 11 4.40352V5.85528C11 6.21135 10.7018 6.5 10.3339 6.5C9.96596 6.5 9.66772 6.21135 9.66772 5.85528V4.40352Z" fill="black"/>
</svg>