<svg xmlns="http://www.w3.org/2000/svg" width="32" height="32" viewBox="0 0 32 32" fill="none">
  <path d="M6 9.16667C6 8.52233 6.52233 8 7.16667 8H25.8333C26.4777 8 27 8.52233 27 9.16667C27 9.811 26.4777 10.3333 25.8333 10.3333H7.16667C6.52234 10.3333 6 9.811 6 9.16667Z" fill="black"/>
  <path d="M6 16.1667C6 15.5223 6.52233 15 7.16667 15H25.8333C26.4777 15 27 15.5223 27 16.1667C27 16.811 26.4777 17.3333 25.8333 17.3333H7.16667C6.52234 17.3333 6 16.811 6 16.1667Z" fill="black"/>
  <path d="M7.16667 22C6.52233 22 6 22.5223 6 23.1667C6 23.811 6.52234 24.3333 7.16667 24.3333H25.8333C26.4777 24.3333 27 23.811 27 23.1667C27 22.5223 26.4777 22 25.8333 22H7.16667Z" fill="black"/>
</svg>