<svg xmlns="http://www.w3.org/2000/svg" width="28" height="28" viewBox="0 0 28 28" fill="none">
  <path fill-rule="evenodd" clip-rule="evenodd" d="M14 5.83333C9.48967 5.83333 5.83333 9.48967 5.83333 14C5.83333 18.5103 9.48967 22.1667 14 22.1667C15.5326 22.1667 16.9634 21.7456 18.1867 21.0135C18.4577 20.8513 18.7828 20.8059 19.0878 20.8877L21.5532 21.5483L20.892 19.0806C20.8103 18.776 20.8555 18.4512 21.0172 18.1805C21.747 16.9585 22.1667 15.53 22.1667 14C22.1667 9.48967 18.5103 5.83333 14 5.83333ZM3.5 14C3.5 8.20101 8.20101 3.5 14 3.5C19.799 3.5 24.5 8.20101 24.5 14C24.5 15.7827 24.0548 17.4643 23.2691 18.9369L24.33 22.8962C24.4379 23.2988 24.3228 23.7284 24.028 24.0231C23.7333 24.3179 23.3037 24.433 22.9011 24.3251L18.9446 23.265C17.4702 24.0533 15.7858 24.5 14 24.5C8.20101 24.5 3.5 19.799 3.5 14Z" fill="black"/>
</svg>