<svg xmlns="http://www.w3.org/2000/svg" width="15" height="25" viewBox="0 0 15 25" fill="none">
  <path fill-rule="evenodd" clip-rule="evenodd" d="M11.9934 11.8774C11.9934 12.3807 11.9934 12.9107 11.9667 13.4141C11.9463 13.868 11.877 14.3183 11.7601 14.7574C11.4992 15.6789 10.9429 16.4894 10.1767 17.0641C8.6052 18.304 6.38829 18.304 4.81675 17.0641C4.04857 16.4911 3.49159 15.6801 3.23274 14.7574C3.11529 14.3184 3.04611 13.868 3.02641 13.4141C2.99965 12.9496 2.99985 12.4625 3.00004 11.9946L3.00007 11.8774V7.66406L3.00047 6.98521V6.98513C3.0011 6.13452 3.00204 4.8565 3.00007 4.58072C3.01324 4.12409 3.09183 3.67172 3.23341 3.2374C3.76705 1.3237 5.51038 0 7.49708 0C9.48378 0 11.2271 1.3237 11.7608 3.2374C11.8861 3.6756 11.9643 4.12592 11.9941 4.58072C12.0162 4.95254 12.0056 6.18478 11.9986 7.00487V7.00487C11.9961 7.29493 11.9941 7.53342 11.9941 7.66406L11.9934 11.8774ZM10.3265 12.6642C10.3265 12.9841 10.3198 13.0907 10.2999 13.4105L10.2998 13.4108C10.2883 13.7014 10.2448 13.9898 10.1699 14.2708C10.0102 14.8608 9.66265 15.3827 9.17984 15.7575C8.19056 16.5264 6.8058 16.5264 5.81652 15.7575C5.33184 15.3838 4.98292 14.8616 4.82318 14.2708C4.74989 13.9895 4.70632 13.7012 4.69317 13.4108C4.67651 13.0908 4.67318 12.9842 4.67318 12.6642C4.67318 11.1331 4.6708 9.73875 4.66877 8.55479V8.5547C4.66493 6.31049 4.66238 4.82212 4.67984 4.59082C4.69912 4.30012 4.74714 4.01205 4.82318 3.73082C4.98292 3.14002 5.33184 2.61783 5.81652 2.24415C6.8058 1.47526 8.19056 1.47526 9.17984 2.24415C9.66265 2.61893 10.0102 3.14083 10.1699 3.73082C10.2545 4.01076 10.3082 4.29916 10.3298 4.59082C10.3434 4.81213 10.3401 6.00582 10.3349 7.84263L10.3349 7.84331C10.3312 9.1602 10.3265 10.8076 10.3265 12.6642ZM3.53 24.9977L11.4667 24.9971C11.4777 24.9975 11.4888 24.9977 11.5 24.9977C11.9602 24.9977 12.3333 24.6246 12.3333 24.1644C12.3333 23.7041 11.9602 23.3311 11.5 23.3311C11.4932 23.3311 11.4864 23.3311 11.4797 23.3313C11.4753 23.3314 11.471 23.3315 11.4667 23.3317V23.3211H8.32667V20.7877C12.128 20.3344 14.9896 17.1093 14.987 13.2811H14.997V11.2356C14.999 11.2121 15 11.1884 15 11.1644C15 10.7042 14.6269 10.3311 14.1667 10.3311C13.7064 10.3311 13.3333 10.7042 13.3333 11.1644L13.3334 11.1743L13.327 11.1744V13.9511H13.307C13.0603 16.9157 10.6335 19.2264 7.66035 19.3277H7.32368C4.35142 19.2247 1.90603 16.964 1.65833 14.0003L1.66666 11.1644C1.66666 10.7042 1.29359 10.3311 0.833349 10.3311C0.373112 10.3311 5.60959e-06 10.7042 5.60959e-06 11.1644C5.60959e-06 11.1994 0.00217327 11.2338 0.00635327 11.2676V13.1777C0.0060494 13.1929 0.0047014 13.2081 0.00332531 13.2237C0.0016854 13.2422 5.60959e-06 13.2611 5.60959e-06 13.2811C-0.00463239 17.1161 2.86727 20.345 6.67667 20.7877V23.3211H3.53V23.3316C3.52005 23.3312 3.51005 23.3311 3.50001 23.3311C3.03977 23.3311 2.66666 23.7041 2.66666 24.1644C2.66666 24.6246 3.03977 24.9977 3.50001 24.9977C3.50336 24.9977 3.50671 24.9978 3.51005 24.9978C3.51672 24.9979 3.52337 24.998 3.53 24.9977Z" fill="#50555C"/>
</svg>