<svg xmlns="http://www.w3.org/2000/svg" width="22" height="22" viewBox="0 0 22 22" fill="none">
  <path d="M10.952 2.45312H4C3.20435 2.45313 2.44129 2.7692 1.87868 3.3318C1.31607 3.89441 1 4.65748 1 5.45312V18.0001C1 18.7958 1.31607 19.5588 1.87868 20.1214C2.44129 20.6841 3.20435 21.0001 4 21.0001H16.547C17.3427 21.0001 18.1057 20.6841 18.6683 20.1214C19.2309 19.5588 19.547 18.7958 19.547 18.0001V11.0481" stroke="black" stroke-width="2" stroke-linecap="round" stroke-linejoin="round"/>
  <path d="M8.75144 16.4761H5.52344V13.2481L17.3564 1.41506C17.488 1.28347 17.6442 1.17909 17.8162 1.10787C17.9881 1.03665 18.1723 1 18.3584 1C18.5445 1 18.7288 1.03665 18.9007 1.10787C19.0726 1.17909 19.2289 1.28347 19.3604 1.41506L20.5844 2.64006C20.716 2.77164 20.8204 2.92785 20.8916 3.09978C20.9628 3.2717 20.9995 3.45597 20.9995 3.64206C20.9995 3.82815 20.9628 4.01242 20.8916 4.18434C20.8204 4.35627 20.716 4.51248 20.5844 4.64406L8.75144 16.4761Z" stroke="black" stroke-width="2" stroke-linecap="round" stroke-linejoin="round"/>
  <path d="M15.5977 3.17383L18.8257 6.40283" stroke="black" stroke-width="2" stroke-linecap="round" stroke-linejoin="round"/>
</svg>