<svg xmlns="http://www.w3.org/2000/svg" width="24" height="24" viewBox="0 0 24 24" fill="none">
  <path fill-rule="evenodd" clip-rule="evenodd" d="M9.39646 2H14.6035C15.7056 1.99999 16.5944 1.99998 17.3138 2.05972C18.0547 2.12125 18.7049 2.25126 19.3049 2.56293C20.2181 3.03731 20.9627 3.78191 21.4371 4.69513C21.7487 5.29513 21.8788 5.94535 21.9403 6.68616C22 7.40556 22 8.29444 22 9.39649V14.6035C22 15.7056 22 16.5944 21.9403 17.3138C21.8788 18.0547 21.7487 18.7049 21.4371 19.3049C20.9627 20.2181 20.2181 20.9627 19.3049 21.4371C18.7049 21.7487 18.0547 21.8788 17.3138 21.9403C16.5944 22 15.7056 22 14.6035 22H9.39649C8.29444 22 7.40557 22 6.68616 21.9403C5.94535 21.8788 5.29513 21.7487 4.69513 21.4371C3.78191 20.9627 3.03731 20.2181 2.56293 19.3049C2.25126 18.7049 2.12125 18.0547 2.05972 17.3138C1.99998 16.5944 1.99999 15.7056 2 14.6035V9.39646C1.99999 8.29442 1.99998 7.40556 2.05972 6.68616C2.12125 5.94535 2.25126 5.29513 2.56293 4.69513C3.03731 3.78191 3.78191 3.03731 4.69513 2.56293C5.29513 2.25126 5.94535 2.12125 6.68616 2.05972C7.40556 1.99998 8.29442 1.99999 9.39646 2ZM6.85168 4.05286C6.23678 4.10393 5.88403 4.19909 5.61708 4.33776C5.06915 4.62239 4.62239 5.06915 4.33776 5.61708C4.19909 5.88403 4.10393 6.23678 4.05286 6.85168C4.0008 7.47856 4 8.28423 4 9.44V14.56C4 15.7158 4.0008 16.5214 4.05286 17.1483C4.10393 17.7632 4.19909 18.116 4.33776 18.3829C4.62239 18.9309 5.06915 19.3776 5.61708 19.6622C5.88403 19.8009 6.23678 19.8961 6.85168 19.9471C7.47856 19.9992 8.28423 20 9.44 20H14.56C15.7158 20 16.5214 19.9992 17.1483 19.9471C17.7632 19.8961 18.116 19.8009 18.3829 19.6622C18.9309 19.3776 19.3776 18.9309 19.6622 18.3829C19.8009 18.116 19.8961 17.7632 19.9471 17.1483C19.9992 16.5214 20 15.7158 20 14.56V9.44C20 8.28423 19.9992 7.47856 19.9471 6.85168C19.8961 6.23678 19.8009 5.88403 19.6622 5.61708C19.3776 5.06915 18.9309 4.62239 18.3829 4.33776C18.116 4.19909 17.7632 4.10393 17.1483 4.05286C16.5214 4.0008 15.7158 4 14.56 4H9.44C8.28423 4 7.47856 4.0008 6.85168 4.05286Z" fill="black"/>
  <path fill-rule="evenodd" clip-rule="evenodd" d="M17.0002 11C17.2654 11 17.5197 11.1054 17.7073 11.2929L21.9142 15.5L20.5 16.9142L17.0001 13.4142L11.7071 18.7071C11.5114 18.9028 11.2433 19.0087 10.9667 18.9994C10.6901 18.9902 10.4297 18.8668 10.2474 18.6585L7.45846 15.4711L4.00719 18.9929C3.62063 19.3873 2.9875 19.3937 2.59305 19.0072C2.19859 18.6206 2.19219 17.9875 2.57875 17.593L6.78578 13.3001C6.98073 13.1011 7.24981 12.9925 7.52823 13.0004C7.80664 13.0083 8.06917 13.1319 8.25258 13.3415L11.0487 16.5371L16.2931 11.2929C16.4806 11.1053 16.735 11 17.0002 11Z" fill="black"/>
  <path d="M9 7.5C9 8.32843 8.32843 9 7.5 9C6.67157 9 6 8.32843 6 7.5C6 6.67157 6.67157 6 7.5 6C8.32843 6 9 6.67157 9 7.5Z" fill="black"/>
</svg>