<svg xmlns="http://www.w3.org/2000/svg" width="32" height="32" viewBox="0 0 32 32" fill="none">
  <path d="M15.6667 8.66667C16.311 8.66667 16.8333 9.189 16.8333 9.83333V14.5H21.5C22.1443 14.5 22.6667 15.0223 22.6667 15.6667C22.6667 16.311 22.1443 16.8333 21.5 16.8333H16.8333V21.5C16.8333 22.1443 16.311 22.6667 15.6667 22.6667C15.0223 22.6667 14.5 22.1443 14.5 21.5V16.8333H9.83333C9.189 16.8333 8.66667 16.311 8.66667 15.6667C8.66667 15.0223 9.189 14.5 9.83333 14.5H14.5V9.83333C14.5 9.189 15.0223 8.66667 15.6667 8.66667Z" fill="black"/>
  <path fill-rule="evenodd" clip-rule="evenodd" d="M14.5064 4C12.8894 3.99999 11.6034 3.99998 10.5665 4.0861C9.50447 4.17429 8.59962 4.35881 7.77318 4.78811C6.49468 5.45224 5.45224 6.49468 4.78811 7.77318C4.35881 8.59962 4.17429 9.50447 4.0861 10.5665C3.99998 11.6034 3.99999 12.8894 4 14.5064V16.8269C3.99999 18.4439 3.99998 19.7299 4.0861 20.7669C4.17429 21.8289 4.35881 22.7337 4.78811 23.5602C5.45224 24.8387 6.49468 25.8811 7.77318 26.5452C8.59962 26.9745 9.50447 27.159 10.5665 27.2472C11.6034 27.3334 12.8894 27.3333 14.5063 27.3333H16.8269C18.4439 27.3333 19.7299 27.3334 20.7669 27.2472C21.8289 27.159 22.7337 26.9745 23.5602 26.5452C24.8387 25.8811 25.8811 24.8387 26.5452 23.5602C26.9745 22.7337 27.159 21.8289 27.2472 20.7669C27.3334 19.7299 27.3333 18.444 27.3333 16.827V14.5064C27.3333 12.8895 27.3334 11.6034 27.2472 10.5665C27.159 9.50447 26.9745 8.59962 26.5452 7.77318C25.8811 6.49468 24.8387 5.45224 23.5602 4.78811C22.7337 4.35881 21.8289 4.17429 20.7669 4.0861C19.7299 3.99998 18.4439 3.99999 16.8269 4H14.5064ZM8.84879 6.85874C9.28666 6.63128 9.84447 6.48742 10.7596 6.41143C11.6886 6.33427 12.8777 6.33333 14.5583 6.33333H16.775C18.4556 6.33333 19.6447 6.33427 20.5738 6.41143C21.4889 6.48742 22.0467 6.63128 22.4845 6.85874C23.3369 7.30149 24.0318 7.99645 24.4746 8.84879C24.7021 9.28666 24.8459 9.84447 24.9219 10.7596C24.9991 11.6886 25 12.8777 25 14.5583V16.775C25 18.4556 24.9991 19.6447 24.9219 20.5738C24.8459 21.4889 24.7021 22.0467 24.4746 22.4845C24.0318 23.3369 23.3369 24.0318 22.4845 24.4746C22.0467 24.7021 21.4889 24.8459 20.5738 24.9219C19.6447 24.9991 18.4556 25 16.775 25H14.5583C12.8777 25 11.6886 24.9991 10.7596 24.9219C9.84447 24.8459 9.28666 24.7021 8.84879 24.4746C7.99645 24.0318 7.30149 23.3369 6.85874 22.4845C6.63128 22.0467 6.48742 21.4889 6.41143 20.5738C6.33427 19.6447 6.33333 18.4556 6.33333 16.775V14.5583C6.33333 12.8777 6.33427 11.6886 6.41143 10.7596C6.48742 9.84447 6.63128 9.28666 6.85874 8.84879C7.30149 7.99645 7.99645 7.30149 8.84879 6.85874Z" fill="black"/>
</svg>