<svg xmlns="http://www.w3.org/2000/svg" width="28" height="28" viewBox="0 0 28 28" fill="none" stroke="currentColor">
  <path fill-rule="evenodd" clip-rule="evenodd" d="M18.3885 20.0389C16.6999 21.3715 14.5677 22.1668 12.2497 22.1668C6.77285 22.1668 2.33301 17.727 2.33301 12.2502C2.33301 6.77334 6.77285 2.3335 12.2497 2.3335C17.7265 2.3335 22.1663 6.77334 22.1663 12.2502C22.1663 14.5682 21.371 16.7004 20.0384 18.3889L25.266 23.6166C25.7216 24.0722 25.7216 24.8109 25.266 25.2665C24.8104 25.7221 24.0717 25.7221 23.6161 25.2665L18.3885 20.0389ZM19.833 12.2502C19.833 16.4383 16.4378 19.8335 12.2497 19.8335C8.06151 19.8335 4.66634 16.4383 4.66634 12.2502C4.66634 8.062 8.06151 4.66683 12.2497 4.66683C16.4378 4.66683 19.833 8.062 19.833 12.2502Z" fill="black"/>
</svg>