<svg xmlns="http://www.w3.org/2000/svg" width="24" height="24" viewBox="0 0 24 24" fill="none">
  <path fill-rule="evenodd" clip-rule="evenodd" d="M2.5 7.5C2.5 4.73858 4.73858 2.5 7.5 2.5H16.5C19.2614 2.5 21.5 4.73858 21.5 7.5V14H21.4981C21.4783 14.2259 21.382 14.4464 21.2091 14.6194L14.5159 21.3126C14.3154 21.513 13.5433 21.5051 13.1338 21.501C13.083 21.5005 13.0378 21.5 13 21.5H7.5C4.73858 21.5 2.5 19.2614 2.5 16.5V7.5ZM7.5 4.5H16.5C18.1569 4.5 19.5 5.84315 19.5 7.5V12H18C16.1089 12 14.4221 12.8749 13.3224 14.242C13.2624 14.2529 13.2026 14.2695 13.1436 14.292C12.795 14.425 12.4081 14.5 11.9975 14.5C11.0649 14.5 10.2576 14.1135 9.74179 13.543C9.37141 13.1333 8.73905 13.1015 8.32937 13.4718C7.91969 13.8422 7.88783 14.4746 8.25821 14.8843C9.16219 15.8842 10.5131 16.5 11.9975 16.5C12.0619 16.5 12.1261 16.4988 12.1899 16.4965C12.0659 16.977 12 17.4808 12 18V19.5H7.5C5.84315 19.5 4.5 18.1569 4.5 16.5V7.5C4.5 5.84315 5.84315 4.5 7.5 4.5ZM19 14H18C15.7909 14 14 15.7909 14 18V19L19 14ZM8.5 11C9.19036 11 9.75 10.4404 9.75 9.75C9.75 9.05964 9.19036 8.5 8.5 8.5C7.80964 8.5 7.25 9.05964 7.25 9.75C7.25 10.4404 7.80964 11 8.5 11ZM15.5 11C16.1904 11 16.75 10.4404 16.75 9.75C16.75 9.05964 16.1904 8.5 15.5 8.5C14.8096 8.5 14.25 9.05964 14.25 9.75C14.25 10.4404 14.8096 11 15.5 11Z" fill="black"/>
</svg>