<svg xmlns="http://www.w3.org/2000/svg" width="28" height="28" viewBox="0 0 28 28" fill="none">
  <path fill-rule="evenodd" clip-rule="evenodd" d="M10 12.7929C10 10.5838 11.7909 8.79289 14 8.79289C16.2091 8.79289 18 10.5838 18 12.7929C18 15.002 16.2091 16.7929 14 16.7929C11.7909 16.7929 10 15.002 10 12.7929ZM14 10.7929C12.8954 10.7929 12 11.6883 12 12.7929C12 13.8975 12.8954 14.7929 14 14.7929C15.1046 14.7929 16 13.8975 16 12.7929C16 11.6883 15.1046 10.7929 14 10.7929Z" fill="currentColor"/>
  <path fill-rule="evenodd" clip-rule="evenodd" d="M13.5477 4.06982C13.842 3.97673 14.158 3.97673 14.4523 4.06982C14.6894 4.14482 14.8612 4.27204 14.9743 4.3678C15.0718 4.45036 15.174 4.55265 15.2596 4.63831L16.4142 5.79289L19.8192 5.79289C20.3552 5.79287 20.8176 5.79286 21.1983 5.82447C21.6002 5.85785 21.9997 5.93156 22.3829 6.13065C22.9309 6.41528 23.3776 6.86204 23.6622 7.40997C23.8613 7.79324 23.935 8.19271 23.9684 8.59459C24 8.97525 24 9.43764 24 9.97365V19.6121C24 20.1481 24 20.6105 23.9684 20.9912C23.935 21.3931 23.8613 21.7925 23.6622 22.1758C23.3776 22.7237 22.9309 23.1705 22.3829 23.4551C21.9997 23.6542 21.6002 23.7279 21.1983 23.7613C20.8176 23.7929 20.3553 23.7929 19.8193 23.7929H8.18083C7.64482 23.7929 7.18236 23.7929 6.8017 23.7613C6.39982 23.7279 6.00035 23.6542 5.61708 23.4551C5.06915 23.1705 4.62239 22.7237 4.33776 22.1758C4.13867 21.7925 4.06495 21.3931 4.03158 20.9912C3.99997 20.6105 3.99998 20.1481 4 19.6121V9.97369C3.99998 9.43767 3.99997 8.97526 4.03158 8.59459C4.06495 8.19271 4.13867 7.79324 4.33776 7.40997C4.62239 6.86204 5.06915 6.41528 5.61708 6.13065C6.00035 5.93156 6.39982 5.85785 6.8017 5.82447C7.18237 5.79286 7.64478 5.79287 8.1808 5.79289L11.5858 5.79289L12.7403 4.63836C12.8259 4.55268 12.9282 4.45037 13.0257 4.3678C13.1388 4.27204 13.3106 4.14482 13.5477 4.06982ZM14 6.20711L12.4142 7.79289H8.22C7.63373 7.79289 7.25517 7.7937 6.96722 7.81761C6.69125 7.84053 6.58924 7.8794 6.53903 7.90548C6.35638 8.00036 6.20746 8.14928 6.11259 8.33192C6.08651 8.38213 6.04764 8.48414 6.02472 8.76012C6.00081 9.04806 6 9.42662 6 10.0129V19.5729C6 20.1592 6.00081 20.5377 6.02472 20.8257C6.04764 21.1016 6.08651 21.2037 6.11259 21.2539C6.20746 21.4365 6.35638 21.5854 6.53903 21.6803C6.58924 21.7064 6.69125 21.7453 6.96722 21.7682C7.00705 21.7715 7.04861 21.7744 7.09221 21.7768C7.53633 19.5061 9.53186 17.793 11.9264 17.793H16.0736C18.4681 17.793 20.4637 19.5061 20.9078 21.7768C20.9514 21.7744 20.993 21.7715 21.0328 21.7682C21.3088 21.7453 21.4108 21.7064 21.461 21.6803C21.6436 21.5854 21.7925 21.4365 21.8874 21.2539C21.9135 21.2037 21.9524 21.1016 21.9753 20.8257C21.9992 20.5377 22 20.1592 22 19.5729V10.0129C22 9.42662 21.9992 9.04806 21.9753 8.76012C21.9524 8.48414 21.9135 8.38213 21.8874 8.33192C21.7925 8.14928 21.6436 8.00036 21.461 7.90548C21.4108 7.8794 21.3088 7.84053 21.0328 7.81761C20.7448 7.7937 20.3663 7.79289 19.78 7.79289H15.5858L14 6.20711ZM18.8777 21.7929C18.4857 20.6167 17.3784 19.769 16.0736 19.769H11.9264C10.6216 19.769 9.51433 20.6167 9.12234 21.7929H18.8777Z" fill="currentColor"/>
</svg>