<svg xmlns="http://www.w3.org/2000/svg" width="32" height="32" viewBox="0 0 32 32" fill="none">
  <path d="M16.1681 27.0832C12.7951 27.061 10.202 25.9704 8.45903 23.8424C6.91043 21.9472 6.11014 19.3115 6.08301 16.0087V15.9932C6.11014 12.6881 6.91043 10.0547 8.46129 8.15949C10.202 6.02927 12.7974 4.93867 16.1681 4.9165H16.1817C18.7679 4.93424 20.9314 5.58594 22.6112 6.85387C24.1914 8.04644 25.3037 9.7444 25.9163 11.9034L23.9947 12.4288C22.9548 8.77129 20.3233 6.90264 16.1726 6.87382C13.4326 6.89377 11.3595 7.73832 10.0121 9.38309C8.75292 10.9237 8.10183 13.1492 8.07697 15.9998C8.10183 18.8505 8.75292 21.076 10.0144 22.6166C11.3618 24.2636 13.4349 25.1081 16.1749 25.1259C18.6459 25.1081 20.2804 24.5429 21.6391 23.2373C23.1899 21.7477 23.1628 19.9189 22.6654 18.8061C22.3738 18.15 21.8425 17.6047 21.1259 17.1902C20.945 18.4382 20.5403 19.449 19.9164 20.2115C19.0822 21.229 17.8998 21.7853 16.4032 21.8651C15.2706 21.925 14.1787 21.6634 13.3332 21.1248C12.3316 20.4886 11.7461 19.5177 11.6828 18.3872C11.6218 17.2877 12.0671 16.2769 12.9353 15.541C13.7649 14.8383 14.9315 14.426 16.3105 14.3484C17.3256 14.293 18.2774 14.3373 19.1545 14.4792C19.037 13.7943 18.8018 13.249 18.4492 12.8566C17.9654 12.3157 17.2171 12.0409 16.2269 12.0342C16.2178 12.0342 16.2088 12.0342 16.1997 12.0342C15.404 12.0342 14.3233 12.2492 13.6361 13.2534L11.9812 12.165C12.9036 10.8217 14.4002 10.0813 16.1997 10.0813C16.2133 10.0813 16.2269 10.0813 16.2404 10.0813C19.2495 10.0991 21.0422 11.9057 21.2208 15.0578C21.3225 15.0999 21.4243 15.1442 21.5238 15.1885C22.9277 15.8358 23.954 16.8156 24.4943 18.0237C25.2449 19.7061 25.315 22.4481 23.0362 24.636C21.2932 26.3073 19.1794 27.0632 16.1817 27.0832H16.1681ZM17.1199 16.2858C16.8915 16.2858 16.6609 16.2924 16.4236 16.3057C14.6941 16.4011 13.6157 17.1791 13.6768 18.2852C13.7401 19.4445 15.0445 19.9832 16.2992 19.9167C17.4522 19.8568 18.9533 19.4157 19.2065 16.4897C18.569 16.3545 17.8704 16.2858 17.1199 16.2858Z" fill="black" stroke="black" stroke-width="0.233333"/>
</svg>