<svg xmlns="http://www.w3.org/2000/svg" width="24" height="24" viewBox="0 0 24 24" fill="none">
  <path d="M14.999 3H4C2.34315 3 1 4.34315 1 6V18C1 19.6569 2.34315 21 4 21H14.999C16.6559 21 17.999 19.6569 17.999 18V6C17.999 4.34315 16.6559 3 14.999 3Z" stroke="black" stroke-width="2" stroke-linecap="round" stroke-linejoin="round"/>
  <path d="M17.999 9.1458L20.494 6.8898C20.7093 6.69512 20.9765 6.5671 21.2632 6.52126C21.5498 6.47542 21.8436 6.51374 22.1089 6.63157C22.3742 6.74939 22.5996 6.94166 22.7578 7.18506C22.9159 7.42846 23.0001 7.71252 23 8.0028V15.9968C23.0001 16.2871 22.9159 16.5712 22.7578 16.8145C22.5996 17.0579 22.3742 17.2502 22.1089 17.368C21.8436 17.4859 21.5498 17.5242 21.2632 17.4783C20.9765 17.4325 20.7093 17.3045 20.494 17.1098L18 14.8538" stroke="black" stroke-width="2" stroke-linecap="round" stroke-linejoin="round"/>
</svg>